<svg width="50" height="50" viewBox="0 0 50 50" fill="none" xmlns="http://www.w3.org/2000/svg">
<path d="M32.8125 17.1875C28.3758 17.1875 24.3742 19.0555 21.5273 22.0352L19.5312 18.5422V13.2188C21.5242 12.0672 22.7359 9.90705 22.6523 7.58283C22.5352 4.31799 19.7805 1.61721 16.5125 1.5633C14.8008 1.53674 13.2281 2.17267 12.0242 3.35627C10.8195 4.54064 10.1562 6.12346 10.1562 7.81252C10.1562 10.0391 11.368 12.1094 13.2812 13.2188V18.5422L10.4836 23.4375H5.46875C3.31484 23.4375 1.5625 25.1899 1.5625 27.3438V30.4688C1.5625 30.9 1.9125 31.25 2.34375 31.25H3.125V33.5938C3.125 34.025 3.475 34.375 3.90625 34.375H17.2664C18.0531 42.2594 24.7242 48.4375 32.8125 48.4375C41.4281 48.4375 48.4375 41.4281 48.4375 32.8125C48.4375 24.1969 41.4281 17.1875 32.8125 17.1875ZM3.125 27.3438C3.125 26.0516 4.17656 25 5.46875 25H10.9375C11.218 25 11.4766 24.85 11.6156 24.6063L14.7406 19.1375C14.8086 19.0195 14.8438 18.886 14.8438 18.75V12.7477C14.8438 12.4461 14.6703 12.1719 14.3984 12.0422C12.7703 11.268 11.7188 9.60705 11.7188 7.81252C11.7188 6.54533 12.2164 5.35861 13.1195 4.47033C14.0227 3.58205 15.2164 3.10236 16.4859 3.1258C18.9367 3.16642 21.0023 5.19142 21.0906 7.63908C21.1578 9.50861 20.1078 11.2367 18.4148 12.0422C18.143 12.1719 17.9695 12.4461 17.9695 12.7477V18.75C17.9695 18.886 18.0047 19.0195 18.0727 19.1375L20.4375 23.2758C19.9633 23.8906 19.543 24.5438 19.168 25.2219C19.1242 25.3 19.0789 25.3766 19.0367 25.4547C18.8594 25.7883 18.6969 26.1289 18.5445 26.475C18.4625 26.6586 18.3852 26.843 18.3109 27.0305C18.2383 27.2149 18.1719 27.4016 18.1063 27.5883C17.9734 27.9602 17.8555 28.3375 17.7508 28.7219C17.7305 28.7969 17.7117 28.8727 17.6922 28.9477C17.6289 29.1938 17.5547 29.436 17.5039 29.6867H3.90625H3.125V27.3438ZM4.6875 32.8125V31.25H17.2664C17.2555 31.3555 17.2586 31.4649 17.25 31.5711C17.2117 32 17.1875 32.4156 17.1875 32.8125H4.6875ZM33.5938 46.8352V44.5313H32.0312V46.8352C24.9016 46.4406 19.1844 40.7235 18.7898 33.5938H21.0938V32.0313H18.7898C18.7961 31.9125 18.7984 31.7922 18.8078 31.6742C18.8398 31.3289 18.8828 30.9719 18.943 30.5914C19.0812 29.7227 19.3031 28.875 19.5953 28.0563C19.6344 27.9485 19.6719 27.8406 19.7133 27.7344C19.7945 27.5219 19.8805 27.3117 19.9727 27.1039C20.1141 26.7875 20.2602 26.4735 20.4234 26.1695C20.4617 26.0977 20.5055 26.0289 20.5453 25.9578C20.7172 25.6508 20.8984 25.35 21.093 25.0578C21.1336 24.9969 21.1742 24.936 21.2156 24.875C23.6133 21.3828 27.5461 19.0383 32.0312 18.7899V21.0938H33.5938V18.7899C40.7234 19.1844 46.4406 24.9016 46.8352 32.0313H44.5312V33.5938H46.8352C46.4406 40.7235 40.7234 46.4406 33.5938 46.8352Z" fill="white"/>
<path d="M38.6453 42.0672L39.4797 43.3875C41.193 42.3054 42.6336 40.8062 43.6461 39.0531L42.293 38.2719C41.4063 39.807 40.1453 41.1187 38.6453 42.0672Z" fill="white"/>
<path d="M43.357 35.7297C43.2203 36.225 43.0469 36.7148 42.8398 37.1875L44.2719 37.8133C44.5078 37.2734 44.7062 36.7117 44.8625 36.1461L43.357 35.7297Z" fill="white"/>
<path d="M35.0039 32.0032L42.6883 25.6L41.6883 24.4L34.0031 30.8047C33.6523 30.5961 33.2484 30.4688 32.8125 30.4688C32.2195 30.4688 31.6828 30.6977 31.2695 31.0617L26.1601 28.2235L25.4008 29.5891L30.507 32.4258C30.4867 32.5524 30.4687 32.6805 30.4687 32.8125C30.4687 34.1047 31.5203 35.1563 32.8125 35.1563C34.1047 35.1563 35.1562 34.1047 35.1562 32.8125C35.1562 32.5274 35.0976 32.2563 35.0039 32.0032ZM32.8125 33.5938C32.382 33.5938 32.0312 33.243 32.0312 32.8125C32.0312 32.3821 32.382 32.0313 32.8125 32.0313C33.2429 32.0313 33.5937 32.3821 33.5937 32.8125C33.5937 33.243 33.2429 33.5938 32.8125 33.5938Z" fill="white"/>
<path d="M33.5938 38.2812H32.0312V39.8438H33.5938V38.2812Z" fill="white"/>
<path d="M30.4688 38.2812H28.9062V39.8438H30.4688V38.2812Z" fill="white"/>
<path d="M36.7188 38.2812H35.1562V39.8438H36.7188V38.2812Z" fill="white"/>
</svg>
