<svg width="64" height="48" viewBox="0 0 64 48" fill="none" xmlns="http://www.w3.org/2000/svg">
<path d="M59.2 22.9H58.1C59.1 21.3 59.7 19 59.7 16.3C59.7 11.3 57.6 7.5 54.9 7.5H10.7C7.9 7.5 5.9 11.3 5.9 16.3C5.9 19 6.5 21.3 7.5 22.9H4.8C2 22.9 0 26.7 0 31.7C0 36.7 2.1 40.5 4.8 40.5H16H59.1C61.9 40.5 63.9 36.7 63.9 31.7C63.9 26.7 61.9 22.9 59.2 22.9ZM54.8 9.7C55.9 9.7 57.4 12.3 57.4 16.3C57.4 20.3 55.9 22.9 54.8 22.9H16H13.9C13.9 22.9 14 22.8 14 22.7C14.1 22.6 14.1 22.5 14.2 22.4C14.3 22.3 14.3 22.2 14.4 22.1C14.5 22 14.5 21.9 14.6 21.7C14.6 21.6 14.7 21.5 14.7 21.4C14.7 21.3 14.8 21.1 14.8 21C14.8 20.9 14.9 20.8 14.9 20.6C14.9 20.5 15 20.3 15 20.2C15 20.1 15.1 20 15.1 19.8C15.1 19.6 15.2 19.5 15.2 19.3C15.2 19.2 15.3 19.1 15.3 18.9C15.3 18.7 15.4 18.6 15.4 18.4C15.4 18.3 15.4 18.2 15.4 18C15.4 17.8 15.4 17.6 15.5 17.4C15.5 17.3 15.5 17.2 15.5 17.1C15.5 16.8 15.5 16.5 15.5 16.1C15.5 15.8 15.5 15.5 15.5 15.1C15.5 15 15.5 14.9 15.5 14.8C15.5 14.6 15.5 14.4 15.4 14.2C15.4 14.1 15.4 14 15.4 13.8C15.4 13.6 15.4 13.5 15.3 13.3C15.3 13.2 15.3 13.1 15.2 12.9C15.2 12.7 15.1 12.6 15.1 12.4C15.1 12.3 15 12.2 15 12C15 11.9 14.9 11.7 14.9 11.6C14.9 11.5 14.8 11.4 14.8 11.2C14.8 11.1 14.7 10.9 14.7 10.8C14.7 10.7 14.6 10.6 14.6 10.5C14.5 10.4 14.5 10.3 14.4 10.1C14.4 10 14.3 9.9 14.2 9.8C14.1 9.7 14.1 9.6 14 9.5C14 9.4 13.9 9.4 13.9 9.3H54.8V9.7ZM18.6 31.7C18.6 35.7 17 38.3 16 38.3C15 38.3 13.4 35.7 13.4 31.7C13.4 27.7 14.9 25.1 16 25.1C17.1 25.1 18.6 27.7 18.6 31.7ZM8 16.3C8 12.3 9.6 9.7 10.6 9.7C11.6 9.7 13.2 12.3 13.2 16.3C13.2 20.3 11.7 22.9 10.6 22.9C9.6 22.9 8 20.3 8 16.3ZM2.2 31.7C2.2 27.7 3.8 25.1 4.8 25.1C5.8 25.1 7.4 27.7 7.4 31.7C7.4 35.7 5.8 38.3 4.8 38.3C3.8 38.3 2.2 35.8 2.2 31.7ZM8.2 38.2C8.3 38.1 8.3 38 8.4 37.9C8.5 37.8 8.5 37.7 8.6 37.6C8.7 37.5 8.7 37.4 8.8 37.2C8.8 37.1 8.9 37 8.9 36.9C8.9 36.8 9 36.6 9 36.5C9 36.4 9.1 36.3 9.1 36.1C9.1 36 9.2 35.8 9.2 35.7C9.2 35.6 9.3 35.5 9.3 35.3C9.3 35.1 9.4 35 9.4 34.8C9.4 34.7 9.5 34.6 9.5 34.4C9.5 34.2 9.6 34.1 9.6 33.9C9.6 33.8 9.6 33.7 9.6 33.5C9.6 33.3 9.6 33.1 9.7 32.9C9.7 32.8 9.7 32.7 9.7 32.6C9.7 32.3 9.7 32 9.7 31.6C9.7 31.2 9.7 31 9.7 30.6C9.7 30.5 9.7 30.4 9.7 30.3C9.7 30.1 9.7 29.9 9.6 29.7C9.6 29.6 9.6 29.5 9.6 29.3C9.6 29.1 9.6 29 9.5 28.8C9.5 28.7 9.5 28.6 9.4 28.4C9.4 28.2 9.3 28.1 9.3 27.9C9.3 27.8 9.2 27.7 9.2 27.5C9.2 27.4 9.1 27.2 9.1 27.1C9 27.2 9 27.1 8.9 27C8.9 26.9 8.8 26.7 8.8 26.6C8.8 26.5 8.7 26.4 8.7 26.3C8.6 26.2 8.6 26.1 8.5 25.9C8.5 25.8 8.4 25.7 8.3 25.6C8.2 25.5 8.2 25.4 8.1 25.3C8.1 25.2 8 25.2 8 25.1H10.6H12.7C11.7 26.7 11.1 29 11.1 31.7C11.1 34.4 11.7 36.7 12.7 38.3H8.1L8.2 38.2ZM59.2 38.3H19.3C19.3 38.3 19.4 38.2 19.4 38.1C19.5 38 19.5 37.9 19.6 37.8C19.6 37.7 19.7 37.6 19.7 37.5C19.8 37.4 19.8 37.3 19.9 37.1C19.9 37 20 36.9 20 36.8C20.1 36.7 20.1 36.5 20.1 36.4C20.1 36.3 20.2 36.2 20.2 36.1C20.2 36 20.3 35.8 20.3 35.6C20.3 35.5 20.4 35.4 20.4 35.3C20.4 35.1 20.5 35 20.5 34.8C20.5 34.7 20.5 34.6 20.6 34.4C20.6 34.2 20.7 34 20.7 33.9C20.7 33.8 20.7 33.7 20.7 33.6C20.7 33.4 20.7 33.2 20.8 33C20.8 32.9 20.8 32.8 20.8 32.7C20.8 32.4 20.8 32.1 20.8 31.7C20.8 31.3 20.8 31.1 20.8 30.7C20.8 30.6 20.8 30.5 20.8 30.4C20.8 30.2 20.8 30 20.7 29.8C20.7 29.7 20.7 29.6 20.7 29.5C20.7 29.3 20.7 29.1 20.6 29C20.6 28.9 20.6 28.8 20.5 28.6C20.5 28.4 20.4 28.3 20.4 28.1C20.4 28 20.3 27.9 20.3 27.8C20.3 27.6 20.2 27.5 20.2 27.3C20.2 27.2 20.1 27.1 20.1 27C20.1 26.9 20 26.7 20 26.6C20 26.5 19.9 26.4 19.9 26.3C19.8 26.2 19.8 26 19.7 25.9C19.7 25.8 19.6 25.7 19.6 25.6C19.5 25.5 19.5 25.4 19.4 25.3L19.3 25.2H54.8H59.1C60.2 25.2 61.7 27.8 61.7 31.8C61.7 35.8 60.2 38.3 59.2 38.3Z" fill="white"/>
<path d="M18.3 13.7H24.6L28.2 14.9C28.3 14.9 28.4 15 28.5 15C28.7 15 28.8 15 29 14.9L31.4 13.8H37C37.6 13.8 38.1 13.3 38.1 12.7C38.1 12.1 37.6 11.6 37 11.6H31.2C31 11.6 30.9 11.6 30.7 11.7L28.5 12.8L25.2 11.7C25.1 11.7 25 11.6 24.9 11.6H18.4C17.8 11.6 17.3 12.1 17.3 12.7C17.3 13.3 17.7 13.7 18.3 13.7Z" fill="white"/>
<path d="M43 13.7H51.7C52.3 13.7 52.8 13.2 52.8 12.6C52.8 12 52.3 11.5 51.7 11.5H43C42.4 11.5 41.9 12 41.9 12.6C41.9 13.2 42.4 13.7 43 13.7Z" fill="white"/>
<path d="M18.3 20.6H32C32.6 20.6 33.1 20.1 33.1 19.5C33.1 18.9 32.6 18.4 32 18.4H18.3C17.7 18.4 17.2 18.9 17.2 19.5C17.2 20.1 17.7 20.6 18.3 20.6Z" fill="white"/>
<path d="M35.9 19.4C35.9 20 36.4 20.5 37 20.5H40.6C40.7 20.5 40.8 20.5 40.9 20.5L45.6 19.1L47.7 20.4C47.9 20.5 48.1 20.6 48.3 20.6H53.1C53.7 20.6 54.2 20.1 54.2 19.5C54.2 18.9 53.7 18.4 53.1 18.4H48.6L46.3 17C46 16.8 45.7 16.8 45.4 16.9L40.4 18.4H37C36.4 18.3 35.9 18.8 35.9 19.4Z" fill="white"/>
<path d="M23.8 29.4H30.1L33.7 30.6C33.8 30.6 33.9 30.7 34 30.7C34.2 30.7 34.3 30.7 34.5 30.6L36.9 29.5H42.4C43 29.5 43.5 29 43.5 28.4C43.5 27.8 43 27.3 42.4 27.3H36.6C36.4 27.3 36.3 27.3 36.1 27.4L33.9 28.5L30.6 27.4C30.5 27.4 30.4 27.3 30.3 27.3H23.8C23.2 27.3 22.7 27.8 22.7 28.4C22.7 29 23.2 29.4 23.8 29.4Z" fill="white"/>
<path d="M48.5 29.4H57.2C57.8 29.4 58.3 28.9 58.3 28.3C58.3 27.7 57.8 27.2 57.2 27.2H48.5C47.9 27.2 47.4 27.7 47.4 28.3C47.4 28.9 47.9 29.4 48.5 29.4Z" fill="white"/>
<path d="M37.4 34.1H23.8C23.2 34.1 22.7 34.6 22.7 35.2C22.7 35.8 23.2 36.3 23.8 36.3H37.5C38.1 36.3 38.6 35.8 38.6 35.2C38.6 34.6 38 34.1 37.4 34.1Z" fill="white"/>
<path d="M58.5 34.1001H54L51.7 32.7001C51.4 32.5001 51.1 32.5001 50.8 32.6001L45.8 34.1001H42.4C41.8 34.1001 41.3 34.6001 41.3 35.2001C41.3 35.8001 41.8 36.3001 42.4 36.3001H46C46.1 36.3001 46.2 36.3001 46.3 36.3001L51 34.9001L53.1 36.2001C53.3 36.3001 53.5 36.4001 53.7 36.4001H58.5C59.1 36.4001 59.6 35.9001 59.6 35.3001C59.6 34.7001 59.2 34.1001 58.5 34.1001Z" fill="white"/>
</svg>
