<svg width="50" height="50" viewBox="0 0 50 50" fill="none" xmlns="http://www.w3.org/2000/svg">
<path d="M15.625 25H9.375V18.75H15.625V25ZM28.125 18.75H21.875V25H28.125V18.75ZM40.625 18.75H34.375V25H40.625V18.75ZM15.625 28.125H9.375V34.375H15.625V28.125ZM28.125 28.125H21.875V34.375H28.125V28.125ZM40.625 28.125H34.375V34.375H40.625V28.125ZM15.625 37.5H9.375V43.75H15.625V37.5ZM28.125 37.5H21.875V43.75H28.125V37.5ZM12.5 9.375C14.2258 9.375 15.625 7.97725 15.625 6.25V3.125C15.625 1.39766 14.2258 0 12.5 0C10.7742 0 9.375 1.39775 9.375 3.125V6.25C9.375 7.97734 10.7742 9.375 12.5 9.375ZM50 6.25V50H0V6.25H7.8125C7.8125 8.83486 9.91514 10.9375 12.5 10.9375C15.0849 10.9375 17.1875 8.83486 17.1875 6.25H32.8125C32.8125 8.83486 34.9151 10.9375 37.5 10.9375C40.0849 10.9375 42.1875 8.83486 42.1875 6.25H50ZM46.875 15.625H3.125V46.875H46.875V15.625ZM37.5 9.375C39.2273 9.375 40.625 7.97725 40.625 6.25V3.125C40.625 1.39766 39.2273 0 37.5 0C35.7727 0 34.375 1.39775 34.375 3.125V6.25C34.375 7.97734 35.7727 9.375 37.5 9.375Z" fill="white"/>
</svg>
