<svg width="50" height="50" viewBox="0 0 50 50" fill="none" xmlns="http://www.w3.org/2000/svg">
<path d="M31.25 0.78125H1.5625C1.13125 0.78125 0.78125 1.13125 0.78125 1.5625V48.4375C0.78125 48.8688 1.13125 49.2188 1.5625 49.2188H31.25C31.6812 49.2188 32.0312 48.8688 32.0312 48.4375V1.5625C32.0312 1.13125 31.6812 0.78125 31.25 0.78125ZM30.4688 47.6562H2.34375V2.34375H30.4688V47.6562Z" fill="white"/>
<path d="M6.25 14.8438H9.375C9.80625 14.8438 10.1562 14.4938 10.1562 14.0625V10.9375C10.1562 10.5063 9.80625 10.1562 9.375 10.1562H6.25C5.81875 10.1562 5.46875 10.5063 5.46875 10.9375V14.0625C5.46875 14.4938 5.81875 14.8438 6.25 14.8438ZM7.03125 11.7188H8.59375V13.2812H7.03125V11.7188Z" fill="white"/>
<path d="M6.25 21.0938H9.375C9.80625 21.0938 10.1562 20.7438 10.1562 20.3125V17.1875C10.1562 16.7563 9.80625 16.4062 9.375 16.4062H6.25C5.81875 16.4062 5.46875 16.7563 5.46875 17.1875V20.3125C5.46875 20.7438 5.81875 21.0938 6.25 21.0938ZM7.03125 17.9688H8.59375V19.5312H7.03125V17.9688Z" fill="white"/>
<path d="M6.25 27.3438H9.375C9.80625 27.3438 10.1562 26.9938 10.1562 26.5625V23.4375C10.1562 23.0063 9.80625 22.6562 9.375 22.6562H6.25C5.81875 22.6562 5.46875 23.0063 5.46875 23.4375V26.5625C5.46875 26.9938 5.81875 27.3438 6.25 27.3438ZM7.03125 24.2188H8.59375V25.7812H7.03125V24.2188Z" fill="white"/>
<path d="M6.25 33.5938H9.375C9.80625 33.5938 10.1562 33.2438 10.1562 32.8125V29.6875C10.1562 29.2563 9.80625 28.9062 9.375 28.9062H6.25C5.81875 28.9062 5.46875 29.2563 5.46875 29.6875V32.8125C5.46875 33.2438 5.81875 33.5938 6.25 33.5938ZM7.03125 30.4688H8.59375V32.0312H7.03125V30.4688Z" fill="white"/>
<path d="M6.25 39.8438H9.375C9.80625 39.8438 10.1562 39.4938 10.1562 39.0625V35.9375C10.1562 35.5063 9.80625 35.1562 9.375 35.1562H6.25C5.81875 35.1562 5.46875 35.5063 5.46875 35.9375V39.0625C5.46875 39.4938 5.81875 39.8438 6.25 39.8438ZM7.03125 36.7188H8.59375V38.2812H7.03125V36.7188Z" fill="white"/>
<path d="M24.2188 3.90625H8.59375V5.46875H24.2188V3.90625Z" fill="white"/>
<path d="M20.3125 7.03125H11.7188V8.59375H20.3125V7.03125Z" fill="white"/>
<path d="M27.3438 11.7188H13.2812V13.2812H27.3438V11.7188Z" fill="white"/>
<path d="M27.3438 17.9688H13.2812V19.5312H27.3438V17.9688Z" fill="white"/>
<path d="M27.3438 24.2188H13.2812V25.7812H27.3438V24.2188Z" fill="white"/>
<path d="M27.3438 30.4688H13.2812V32.0312H27.3438V30.4688Z" fill="white"/>
<path d="M27.3438 36.7188H13.2812V38.2812H27.3438V36.7188Z" fill="white"/>
<path d="M39.0297 6.02578C38.9305 5.69531 38.6258 5.46875 38.2812 5.46875C37.9367 5.46875 37.632 5.69531 37.5328 6.02578L35.1891 13.8383C35.1672 13.9109 35.1562 13.9867 35.1562 14.0625V48.4375C35.1562 48.8688 35.5063 49.2188 35.9375 49.2188H40.625C41.0563 49.2188 41.4062 48.8688 41.4062 48.4375V14.0625C41.4062 13.9867 41.3953 13.9109 41.3734 13.8383L39.0297 6.02578ZM38.2812 8.96875L39.575 13.2812H36.9875L38.2812 8.96875ZM39.8438 14.8438V42.9688H36.7188V14.8438H39.8438ZM36.7188 47.6562V44.5312H39.8438V47.6562H36.7188Z" fill="white"/>
<path d="M48.4375 33.5938V8.59375C48.4375 8.49453 48.4188 8.39609 48.382 8.30313L46.8195 4.39687C46.7 4.10078 46.4133 3.90625 46.0938 3.90625C45.7742 3.90625 45.4875 4.10078 45.368 4.39687L43.8055 8.30313C43.7687 8.39609 43.75 8.49453 43.75 8.59375V33.5938C43.3188 33.5938 42.9688 33.9438 42.9688 34.375V43.75C42.9688 44.1813 43.3188 44.5312 43.75 44.5312V48.4375C43.75 48.8688 44.1 49.2188 44.5312 49.2188H47.6562C48.0875 49.2188 48.4375 48.8688 48.4375 48.4375V44.5312C48.8688 44.5312 49.2188 44.1813 49.2188 43.75V34.375C49.2188 33.9438 48.8688 33.5938 48.4375 33.5938ZM46.0938 6.79063L46.8148 8.59375H45.3727L46.0938 6.79063ZM45.3125 10.1562H46.875V33.5938H45.3125V10.1562ZM47.6562 42.9688H44.5312V35.1562H47.6562V42.9688ZM46.875 47.6562H45.3125V44.5312H46.875V47.6562Z" fill="white"/>
</svg>
