<svg width="25" height="25" viewBox="0 0 25 25" fill="none" xmlns="http://www.w3.org/2000/svg">
<path d="M25 18.7499C25 19.298 24.8458 19.806 24.5989 20.2531L16.7054 11.4213L24.5133 4.59008C24.817 5.07209 25 5.63829 25 6.25013V18.7499ZM12.5 13.0249L23.3645 3.51875C22.9187 3.27468 22.4166 3.125 21.8751 3.125H3.12498C2.58274 3.125 2.08054 3.27468 1.6365 3.51875L12.5 13.0249ZM15.529 12.4498L13.0141 14.6516C12.867 14.7798 12.6839 14.8438 12.5 14.8438C12.3161 14.8438 12.1329 14.7798 11.9858 14.6516L9.47042 12.4497L1.47704 21.3943C1.95616 21.6949 2.51767 21.875 3.12493 21.875H21.8751C22.4822 21.875 23.044 21.6949 23.523 21.3943L15.529 12.4498ZM0.486799 4.59003C0.183116 5.07204 0 5.63824 0 6.25013V18.75C0 19.298 0.153438 19.8061 0.40132 20.2531L8.29392 11.4198L0.486799 4.59003Z" fill="#E2A225"/>
</svg>
