<svg width="28" height="28" viewBox="0 0 28 28" fill="none" xmlns="http://www.w3.org/2000/svg">
<path d="M14 1.75C8.33874 1.75 3.745 6.34375 3.745 12.005C3.745 22.6712 13.5887 26.1538 13.685 26.1975C13.79 26.2325 13.8862 26.25 14 26.25C14.105 26.25 14.21 26.2325 14.3062 26.1975C14.4112 26.1625 24.255 22.68 24.255 12.005C24.255 6.34375 19.6525 1.75 14 1.75ZM14 17.3863C10.9987 17.3863 8.56625 14.945 8.56625 11.9613C8.56625 8.96 11.0075 6.5275 14 6.5275C16.9925 6.5275 19.425 8.96875 19.425 11.9613C19.425 14.945 16.9925 17.3863 14 17.3863Z" fill="#E2A225"/>
</svg>
