<svg width="25" height="25" viewBox="0 0 25 25" fill="none" xmlns="http://www.w3.org/2000/svg">
<g clip-path="url(#clip0_10_183)">
<path d="M24.8875 19.9263L24.7631 19.5513C24.4683 18.6754 23.5024 17.7618 22.6149 17.5211L19.3305 16.6238C18.4398 16.3815 17.1692 16.7073 16.5175 17.359L15.3288 18.5477C11.0088 17.3803 7.62124 13.9927 6.45547 9.67348L7.64424 8.48472C8.29591 7.83305 8.62169 6.56417 8.37937 5.67348L7.48376 2.38739C7.24143 1.49832 6.32617 0.532339 5.45187 0.240873L5.07694 0.114813C4.20097 -0.176654 2.95169 0.118114 2.30007 0.769735L0.521935 2.5495C0.204271 2.86549 0.00124538 3.76928 0.00124538 3.77258C-0.060946 9.41801 2.15269 14.8571 6.14604 18.8505C10.1296 22.8341 15.5483 25.0445 21.1773 24.997C21.2068 24.997 22.1368 24.7972 22.4544 24.4812L24.2326 22.703C24.8842 22.0515 25.1789 20.8022 24.8875 19.9263Z" fill="#E2A225"/>
</g>
<defs>
<clipPath id="clip0_10_183">
<rect width="25" height="25" fill="white"/>
</clipPath>
</defs>
</svg>
